<svg width="21" height="29" viewBox="0 0 21 29" fill="none" xmlns="http://www.w3.org/2000/svg">
<path d="M20.8277 2.26449C20.3857 1.04724 19.5629 0.327924 18.3139 0.0642248C18.2368 0.0476019 18.1696 0.0211564 18.1159 0H2.87878C2.74202 0.0498687 2.60375 0.0952038 2.47001 0.139783C2.1436 0.247832 1.83532 0.349836 1.57086 0.506998C0.599935 1.08275 0.0732918 1.98492 0.00302234 3.18706C0 3.24222 0 3.3004 0 3.36236V9.56043C0 16.6758 0 18.9554 0.00151117 26.07C0.00151117 27.3741 0.887058 28.2498 2.20404 28.2506C7.27403 28.2529 12.344 28.2521 17.414 28.2506H18.7287C19.9218 28.2506 20.629 27.7141 20.9547 26.5619C20.966 26.5203 20.9834 26.4848 21 26.4553V2.87123C20.9841 2.81305 20.969 2.75411 20.9539 2.69517C20.9146 2.5433 20.8776 2.39974 20.8285 2.26449H20.8277ZM14.4574 26.5052H6.54262V18.6018H14.4574V26.5052ZM19.2758 26.512H16.1514V23.7534C16.1522 22.2112 16.1529 20.6683 16.1499 19.1261C16.1484 18.0706 15.6044 17.2833 14.6954 17.0196C14.4506 16.9485 14.1755 16.9108 13.9005 16.9093C11.7184 16.8994 9.61332 16.9017 7.08815 16.9047C5.70392 16.9062 4.84255 17.7729 4.84179 19.1654C4.84028 20.6834 4.84104 22.2014 4.84179 23.7194V26.5029H1.7182V19.7253C1.7182 12.6991 1.7182 10.5079 1.7182 3.48174C1.7182 2.33249 2.31965 1.72576 3.45681 1.725C8.16259 1.725 12.8691 1.725 17.5749 1.725C18.6396 1.725 19.2758 2.35441 19.2758 3.40845C19.2765 10.6099 19.2758 12.9764 19.2758 20.1779V26.512Z" fill="white"/>
<path d="M13.9822 6.02592C12.8443 6.02517 11.6951 6.02441 10.5194 6.02441C9.3437 6.02441 8.22468 6.02441 7.0233 6.02592C6.70293 6.02592 6.4279 6.12566 6.25034 6.30549C6.10149 6.45661 6.02366 6.65986 6.02593 6.89409C6.03122 7.40185 6.4279 7.74413 7.01272 7.74564C7.82195 7.74791 8.63194 7.74715 9.44118 7.74715H11.5137C12.332 7.74715 13.1511 7.74715 13.9702 7.74639C14.289 7.74639 14.564 7.64515 14.7439 7.46305C14.8935 7.31118 14.9713 7.10868 14.969 6.87747C14.963 6.36972 14.5671 6.02744 13.9822 6.02744V6.02592Z" fill="white"/>
<path d="M13.956 10.8505C11.6485 10.849 9.34166 10.849 7.0341 10.8505C6.72582 10.8505 6.46665 10.9366 6.28456 11.0983C6.11455 11.2502 6.02539 11.4618 6.02539 11.7111C6.02539 12.2325 6.42358 12.5695 7.03863 12.5702C7.84711 12.5717 8.65483 12.571 9.46331 12.571H11.5404C12.3474 12.571 13.1536 12.571 13.9598 12.5702C14.5741 12.5687 14.97 12.231 14.9693 11.7088C14.9685 11.1882 14.5703 10.8513 13.956 10.8505Z" fill="white"/>
</svg>
