<svg width="22" height="28" viewBox="0 0 22 28" fill="none" xmlns="http://www.w3.org/2000/svg">
<path d="M6.10417 14.025C5.64623 14.025 5.275 14.3962 5.275 14.8542C5.275 15.3121 5.64623 15.6833 6.10417 15.6833L16.3125 15.6833C16.7704 15.6833 17.1417 15.3121 17.1417 14.8542C17.1417 14.3962 16.7704 14.025 16.3125 14.025L6.10417 14.025Z" fill="white" stroke="white" stroke-width="0.2" stroke-linecap="round"/>
<path d="M6.10417 18.4C5.64623 18.4 5.275 18.7712 5.275 19.2292C5.275 19.6871 5.64623 20.0583 6.10417 20.0583L11.9375 20.0583C12.3954 20.0583 12.7667 19.6871 12.7667 19.2292C12.7667 18.7712 12.3954 18.4 11.9375 18.4L6.10417 18.4Z" fill="white" stroke="white" stroke-width="0.2" stroke-linecap="round"/>
<path d="M11.9461 2.55838C12.5212 2.55838 12.6728 2.56374 12.8068 2.59591C12.9454 2.62918 13.0779 2.68407 13.1995 2.75854C13.317 2.83054 13.428 2.93397 13.8347 3.34065L19.0761 8.58206C19.4827 8.98875 19.5862 9.09975 19.6582 9.21724C19.7326 9.33878 19.7875 9.47128 19.8208 9.60988C19.853 9.74386 19.8583 9.89549 19.8583 10.4706V23.0209C19.8583 23.6472 19.8577 24.0669 19.8313 24.3901C19.8057 24.7036 19.76 24.8525 19.7103 24.9501C19.5801 25.2056 19.3723 25.4134 19.1167 25.5437C19.0191 25.5934 18.8703 25.639 18.5567 25.6647C18.2336 25.6911 17.8138 25.6917 17.1875 25.6917H5.22917C4.60288 25.6917 4.18311 25.6911 3.85994 25.6647C3.5464 25.639 3.39757 25.5934 3.3 25.5437C3.04441 25.4134 2.83661 25.2056 2.70638 24.9501C2.65667 24.8525 2.611 24.7036 2.58538 24.3901C2.55898 24.0669 2.55833 23.6472 2.55833 23.0209V5.22921C2.55833 4.60293 2.55898 4.18315 2.58538 3.85999C2.611 3.54645 2.65667 3.39761 2.70638 3.30004C2.83661 3.04446 3.04441 2.83666 3.3 2.70643C3.39757 2.65672 3.5464 2.61105 3.85994 2.58543C4.18311 2.55902 4.60288 2.55838 5.22917 2.55838H11.9461ZM13.194 0.983397C12.845 0.899624 12.4849 0.899798 12.029 0.900018L12.0203 0.900023L11.9461 0.900046L5.19906 0.900046L5.19508 0.900046C4.61136 0.900036 4.12359 0.900028 3.7249 0.932603C3.30883 0.966597 2.91745 1.04015 2.54713 1.22884C1.97951 1.51806 1.51802 1.97955 1.2288 2.54717C1.04011 2.9175 0.966552 3.30888 0.932557 3.72495C0.899983 4.12364 0.899991 4.6114 0.9 5.19512L0.9 5.1991V23.051L0.9 23.055C0.899991 23.6387 0.899983 24.1265 0.932557 24.5251C0.966552 24.9412 1.04011 25.3326 1.2288 25.7029C1.51802 26.2705 1.97951 26.732 2.54713 27.0212C2.91745 27.2099 3.30883 27.2835 3.7249 27.3175C4.1236 27.3501 4.61138 27.3501 5.19512 27.35H5.19909H17.2176H17.2215C17.8053 27.3501 18.2931 27.3501 18.6918 27.3175C19.1078 27.2835 19.4992 27.2099 19.8695 27.0212C20.4372 26.732 20.8987 26.2705 21.1879 25.7029C21.3766 25.3326 21.4501 24.9412 21.4841 24.5251C21.5167 24.1265 21.5167 23.6387 21.5167 23.055V23.0511V10.4706L21.5167 10.3964L21.5167 10.3878C21.5169 9.93185 21.5171 9.57168 21.4333 9.22274C21.3594 8.91494 21.2375 8.62068 21.0721 8.35077C20.8846 8.04479 20.6298 7.79024 20.3073 7.46802L20.3012 7.46193L20.2487 7.40945L15.0073 2.16803L14.9548 2.11552L14.9487 2.10941C14.6265 1.78688 14.3719 1.53208 14.0659 1.34458C13.796 1.17918 13.5018 1.0573 13.194 0.983397Z" fill="white" stroke="white" stroke-width="0.2"/>
<path d="M11.208 1.62925H11.108L11.108 1.72925L11.108 7.00936L11.108 7.01334C11.108 7.59706 11.108 8.08482 11.1406 8.48351C11.1746 8.89958 11.2481 9.29096 11.4368 9.66129C11.726 10.2289 12.1875 10.6904 12.7551 10.9796C13.1255 11.1683 13.5168 11.2419 13.9329 11.2759C14.3316 11.3084 14.8194 11.3084 15.4031 11.3084H15.407H20.6872H20.7872V11.2084V9.75008V9.65008H20.6872H15.4372C14.8109 9.65008 14.3911 9.64944 14.068 9.62303C13.7544 9.59742 13.6056 9.55175 13.508 9.50203C13.2524 9.3718 13.0446 9.16401 12.9144 8.90842C12.8647 8.81085 12.819 8.66201 12.7934 8.34847C12.767 8.02531 12.7663 7.60553 12.7663 6.97925V1.72925V1.62925H12.6663H11.208Z" fill="white" stroke="white" stroke-width="0.2"/>
</svg>
