<svg width="24" height="27" viewBox="0 0 24 27" fill="none" xmlns="http://www.w3.org/2000/svg">
<path d="M12.3616 0C12.8318 0.114407 13.2967 0.242855 13.6914 0.540833C14.6748 1.28292 15.0461 2.27306 14.8781 3.50138C14.94 3.52998 15.0076 3.56274 15.0762 3.5929C18.1642 4.95175 19.9635 7.30749 20.496 10.6305C20.5626 11.046 20.5641 11.475 20.5662 11.8978C20.574 13.4631 20.5693 15.0289 20.5693 16.5942C20.5693 17.0519 20.6281 17.1163 21.0779 17.1543C22.5538 17.2786 23.6983 18.2573 23.9495 19.6094C24.287 21.4279 22.8985 23.1305 21.0441 23.1471C19.4096 23.1617 17.7747 23.1503 16.1397 23.1508C16.0456 23.1508 15.9509 23.1508 15.8401 23.1508C15.6722 24.285 15.1506 25.1987 14.2239 25.8638C13.5265 26.3646 12.7434 26.5898 11.8863 26.5778C10.3049 26.5554 8.44165 25.3406 8.14419 23.1503C8.0537 23.1503 7.9601 23.1503 7.86649 23.1503C6.25751 23.1503 4.64905 23.1534 3.04007 23.1492C1.26625 23.1445 -0.0665966 21.7498 0.00204763 19.9786C0.0556109 18.6015 1.22464 17.3556 2.62457 17.1839C2.72754 17.1715 2.83102 17.1616 2.93451 17.1533C3.36249 17.1174 3.4275 17.0461 3.4275 16.6046C3.4275 14.9353 3.39422 13.265 3.43478 11.5967C3.52371 7.90293 5.28557 5.28353 8.61118 3.70107C8.77291 3.6241 8.9986 3.59446 9.08337 3.46861C9.16033 3.35369 9.08129 3.13683 9.07869 2.9647C9.05424 1.53201 10.0797 0.293298 11.4911 0.047843C11.5405 0.0395224 11.5873 0.016121 11.6352 0H12.3622L12.3616 0ZM11.9893 21.4378C14.9129 21.4378 17.8371 21.4378 20.7607 21.4378C20.8647 21.4378 20.9687 21.4404 21.0722 21.4336C21.7753 21.3863 22.2901 20.8304 22.2833 20.1284C22.2766 19.43 21.7175 18.9141 20.9068 18.8584C19.6296 18.7711 18.8563 17.9421 18.8553 16.6556C18.8542 15.0466 18.8511 13.4376 18.8563 11.8287C18.8594 10.9186 18.7014 10.0408 18.3753 9.19261C17.1017 5.88052 13.6206 4.05521 10.2618 4.93666C7.27262 5.72087 5.17273 8.40476 5.14672 11.4995C5.13164 13.2551 5.14776 15.0112 5.141 16.7674C5.13736 17.7929 4.47848 18.6104 3.49562 18.8168C3.26837 18.8647 3.03019 18.8558 2.80086 18.8964C1.93969 19.0483 1.4571 19.9536 1.84036 20.7108C2.1009 21.2251 2.54396 21.4409 3.11444 21.4399C6.0729 21.4362 9.03136 21.4383 11.9898 21.4383L11.9893 21.4378ZM9.92634 23.1607C10.0491 24.1253 11.0392 24.8965 12.084 24.8622C13.0533 24.8305 14.0101 24.0125 14.0632 23.1607H9.92634ZM10.799 3.04427H13.1984C13.2384 2.56688 13.0642 2.18257 12.6648 1.92048C12.2363 1.63914 11.7834 1.6329 11.3486 1.91164C10.9347 2.17685 10.7594 2.56584 10.799 3.04427Z" fill="white"/>
</svg>
