<svg width="23" height="25" viewBox="0 0 23 25" fill="none" xmlns="http://www.w3.org/2000/svg">
<path fill-rule="evenodd" clip-rule="evenodd" d="M9.64988 2.45377C8.83913 2.98924 7.88807 3.80272 6.55431 4.94595L5.13764 6.16023C3.628 7.45421 3.04961 7.96993 2.74074 8.64147C2.43187 9.31302 2.41672 10.0878 2.41672 12.0761V18.0833C2.41672 19.439 2.41823 20.3845 2.51414 21.0979C2.60731 21.7909 2.77773 22.1579 3.03912 22.4193C3.30051 22.6807 3.66749 22.8511 4.3605 22.9442C5.07389 23.0402 6.01938 23.0417 7.37506 23.0417H15.8751C17.2307 23.0417 18.1762 23.0402 18.8896 22.9442C19.5826 22.8511 19.9496 22.6807 20.211 22.4193C20.4724 22.1579 20.6428 21.7909 20.736 21.0979C20.8319 20.3845 20.8334 19.439 20.8334 18.0833V12.0761C20.8334 10.0878 20.8182 9.31302 20.5094 8.64147C20.2005 7.96993 19.6221 7.45421 18.1125 6.16023L16.6958 4.94595C15.362 3.80272 14.411 2.98924 13.6002 2.45377C12.8061 1.92925 12.2197 1.72257 11.6251 1.72257C11.0304 1.72257 10.4441 1.92925 9.64988 2.45377ZM8.86914 1.27166C9.78787 0.66488 10.6475 0.305908 11.6251 0.305908C12.6026 0.305908 13.4622 0.66488 14.381 1.27166C15.2745 1.86183 16.2923 2.73419 17.5806 3.83847L19.0344 5.08462C19.0778 5.12176 19.1206 5.15845 19.1629 5.19472C20.4994 6.33969 21.3421 7.06159 21.7964 8.04951C22.2508 9.03743 22.2505 10.147 22.2501 11.9069C22.2501 11.9626 22.2501 12.019 22.2501 12.0761V18.1352C22.2501 19.4268 22.2501 20.4678 22.14 21.2866C22.0257 22.1368 21.7812 22.8525 21.2127 23.421C20.6442 23.9895 19.9285 24.234 19.0784 24.3483C18.2596 24.4584 17.2185 24.4583 15.9269 24.4583H7.32321C6.03161 24.4583 4.99053 24.4584 4.17174 24.3483C3.32163 24.234 2.60586 23.9895 2.03739 23.421C1.46891 22.8525 1.2244 22.1367 1.11011 21.2866C1.00002 20.4678 1.00004 19.4268 1.00006 18.1352L1.00006 12.0761C1.00006 12.019 1.00004 11.9626 1.00003 11.9069C0.999582 10.147 0.999301 9.03743 1.45368 8.04951C1.90806 7.06159 2.7507 6.33969 4.08718 5.19473C4.12952 5.15846 4.17235 5.12176 4.21569 5.08462L5.66954 3.83845C6.95785 2.73418 7.97558 1.86182 8.86914 1.27166Z" fill="white" stroke="white" stroke-width="0.5"/>
<path fill-rule="evenodd" clip-rule="evenodd" d="M7.375 15.6667C7.375 14.4931 8.3264 13.5417 9.5 13.5417H13.75C14.9236 13.5417 15.875 14.4931 15.875 15.6667V22.7501C15.875 23.1413 15.5579 23.4584 15.1667 23.4584C14.7755 23.4584 14.4583 23.1413 14.4583 22.7501V15.6667C14.4583 15.2755 14.1412 14.9584 13.75 14.9584H9.5C9.1088 14.9584 8.79167 15.2755 8.79167 15.6667V22.7501C8.79167 23.1413 8.47453 23.4584 8.08333 23.4584C7.69213 23.4584 7.375 23.1413 7.375 22.7501V15.6667Z" fill="white" stroke="white" stroke-width="0.5" stroke-linecap="round" stroke-linejoin="round"/>
</svg>
