<svg width="27" height="30" viewBox="0 0 27 30" fill="none" xmlns="http://www.w3.org/2000/svg">
<path fill-rule="evenodd" clip-rule="evenodd" d="M10.4238 1L11.9375 1C12.3402 1 12.6667 1.32646 12.6667 1.72917C12.6667 2.13187 12.3402 2.45833 11.9375 2.45833H10.4792C8.39616 2.45833 6.90726 2.45988 5.77576 2.61201C4.66525 2.76131 4.00882 3.04353 3.52617 3.52617C3.04353 4.00882 2.76131 4.66525 2.61201 5.77576C2.45988 6.90726 2.45833 8.39616 2.45833 10.4792V19.2292C2.45833 21.3122 2.45988 22.8011 2.61201 23.9326C2.76131 25.0431 3.04353 25.6995 3.52617 26.1822C4.00882 26.6648 4.66525 26.947 5.77576 27.0963C6.90725 27.2485 8.39616 27.25 10.4792 27.25H13.3958C15.4788 27.25 16.9677 27.2485 18.0992 27.0963C19.2098 26.947 19.8662 26.6648 20.3488 26.1822C20.8315 25.6995 21.1137 25.0431 21.263 23.9326C21.4151 22.8011 21.4167 21.3122 21.4167 19.2292V16.3125C21.4167 15.9098 21.7431 15.5833 22.1458 15.5833C22.5485 15.5833 22.875 15.9098 22.875 16.3125V19.2845C22.875 21.3 22.875 22.887 22.7083 24.1269C22.5373 25.3991 22.1788 26.4146 21.38 27.2134C20.5813 28.0121 19.5658 28.3706 18.2936 28.5417C17.0536 28.7084 15.4667 28.7083 13.4512 28.7083H10.4238C8.40834 28.7083 6.82136 28.7084 5.58144 28.5417C4.30921 28.3706 3.29374 28.0121 2.49498 27.2134C1.69621 26.4146 1.33773 25.3991 1.16668 24.1269C0.999975 22.887 0.999986 21.3 1 19.2845V10.4238C0.999986 8.40835 0.999975 6.82137 1.16668 5.58144C1.33773 4.30921 1.69621 3.29374 2.49498 2.49498C3.29374 1.69621 4.30921 1.33773 5.58144 1.16668C6.82137 0.999975 8.40835 0.999986 10.4238 1Z" fill="white" stroke="white" stroke-width="0.6" stroke-linecap="round"/>
<path fill-rule="evenodd" clip-rule="evenodd" d="M20.6872 1C21.0899 1 21.4163 1.32646 21.4163 1.72917L21.4163 10.4792C21.4163 10.8819 21.0899 11.2083 20.6872 11.2083C20.2845 11.2083 19.958 10.8819 19.958 10.4792L19.958 1.72917C19.958 1.32646 20.2845 1 20.6872 1Z" fill="white" stroke="white" stroke-width="0.6" stroke-linecap="round"/>
<path fill-rule="evenodd" clip-rule="evenodd" d="M25.792 6.10417C25.792 6.50687 25.4655 6.83333 25.0628 6.83333L16.3128 6.83333C15.9101 6.83333 15.5837 6.50687 15.5837 6.10417C15.5837 5.70146 15.9101 5.375 16.3128 5.375L25.0628 5.375C25.4655 5.375 25.792 5.70146 25.792 6.10417Z" fill="white" stroke="white" stroke-width="0.6" stroke-linecap="round"/>
<path fill-rule="evenodd" clip-rule="evenodd" d="M6.83301 16.3124C6.83301 15.9097 7.15947 15.5833 7.56217 15.5833L16.3122 15.5833C16.7149 15.5833 17.0413 15.9097 17.0413 16.3124C17.0413 16.7151 16.7149 17.0416 16.3122 17.0416L7.56217 17.0416C7.15947 17.0416 6.83301 16.7151 6.83301 16.3124Z" fill="white" stroke="white" stroke-width="0.6" stroke-linecap="round"/>
<path fill-rule="evenodd" clip-rule="evenodd" d="M6.83301 10.4792C6.83301 10.0765 7.15947 9.75 7.56217 9.75L13.3955 9.75C13.7982 9.75 14.1247 10.0765 14.1247 10.4792C14.1247 10.8819 13.7982 11.2083 13.3955 11.2083L7.56217 11.2083C7.15947 11.2083 6.83301 10.8819 6.83301 10.4792Z" fill="white" stroke="white" stroke-width="0.6" stroke-linecap="round"/>
<path fill-rule="evenodd" clip-rule="evenodd" d="M6.83301 22.1459C6.83301 21.7432 7.15947 21.4167 7.56217 21.4167L13.3955 21.4167C13.7982 21.4167 14.1247 21.7432 14.1247 22.1459C14.1247 22.5486 13.7982 22.8751 13.3955 22.8751L7.56217 22.8751C7.15947 22.8751 6.83301 22.5486 6.83301 22.1459Z" fill="white" stroke="white" stroke-width="0.6" stroke-linecap="round"/>
</svg>
